# xmcd
#
# Track frame offsets:
# 182
# 10597
# 26325
# 40927
# 53640
# 65995
# 82412
# 98037
# 113672
# 136405
#
# Disc length: 2004 seconds
#
#
# Revision: 2
# Processed by: cddbd v1.5.2PL0 Copyright (c) Steve Scherf et al.
# Submitted via: FreeRIP 2.943 
#
DISCID=7f07d20a
DTITLE=Rabbit, Eddie - Step By Step - Step By Step
DYEAR=1981
DGENRE=Rock
TTITLE0=Early In The Mornin'
TTITLE1=Bring Back The Sunshine
TTITLE2=Skip-A-Beat
TTITLE3=Dim Dim The Lights
TTITLE4=Rivers
TTITLE5=Step By Step
TTITLE6=Someone Could Lose A Heart Tonight
TTITLE7=I Don't Know Where To Start
TTITLE8=Nobody Loves Me Like My Baby
TTITLE9=My Only Wish
EXTD=
EXTT0=
EXTT1=
EXTT2=
EXTT3=
EXTT4=
EXTT5=
EXTT6=
EXTT7=
EXTT8=
EXTT9=
PLAYORDER=
